<svg xmlns="http://www.w3.org/2000/svg" width="24" height="24" viewBox="0 0 24 24">
  <path id="dribble" d="M22.392,5.976a11.918,11.918,0,0,0-4.369-4.368A11.755,11.755,0,0,0,12,0,11.762,11.762,0,0,0,5.976,1.608,11.915,11.915,0,0,0,1.608,5.976,11.759,11.759,0,0,0,0,12a11.747,11.747,0,0,0,1.608,6.024,11.909,11.909,0,0,0,4.369,4.368A11.755,11.755,0,0,0,12,24a11.762,11.762,0,0,0,6.024-1.608,11.919,11.919,0,0,0,4.369-4.368A11.758,11.758,0,0,0,24,12,11.747,11.747,0,0,0,22.392,5.976ZM12,1.992a9.737,9.737,0,0,1,6.384,2.3,11.94,11.94,0,0,1-4.92,3.48A25.6,25.6,0,0,0,9.551,2.327,9.258,9.258,0,0,1,12,1.992ZM4.212,5.76A9.739,9.739,0,0,1,7.465,3.1a24.442,24.442,0,0,1,4.008,5.4,26.346,26.346,0,0,1-7.609,1.08q-1.031,0-1.56-.048A10.259,10.259,0,0,1,4.212,5.76ZM1.992,12c0-.065,0-.144.012-.24s.012-.175.012-.24c.3.017.769.024,1.393.024a29.167,29.167,0,0,0,8.927-1.32q.337.671.7,1.512A11.923,11.923,0,0,0,8.159,14.3a13.737,13.737,0,0,0-3.647,4.3A9.677,9.677,0,0,1,1.992,12ZM12,22.008A9.714,9.714,0,0,1,5.879,19.9,13.616,13.616,0,0,1,9.2,15.816a10.233,10.233,0,0,1,4.452-2.424,35.329,35.329,0,0,1,1.872,7.944A9.8,9.8,0,0,1,12,22.008Zm8.5-4.752A10.022,10.022,0,0,1,17.4,20.4a34.541,34.541,0,0,0-1.655-7.3q1.678-.119,3-.12,1.438,0,3.191.12A9.716,9.716,0,0,1,20.5,17.256Zm-1.488-6q-2.088,0-3.864.168-.376-.985-.816-1.944a11.867,11.867,0,0,0,5.279-3.96,9.634,9.634,0,0,1,2.352,5.808q-1.462-.072-2.951-.072Z" fill-rule="evenodd"/>
</svg>
