<svg xmlns="http://www.w3.org/2000/svg" width="22.729" height="21.792" viewBox="0 0 22.729 21.792">
  <path id="github" d="M11.294.279A11.261,11.261,0,0,0,0,11.44a11.293,11.293,0,0,0,7.765,10.6.52.52,0,0,0,.706-.558V19.532c-3.106.7-3.812-1.4-3.812-1.4a3.762,3.762,0,0,0-1.271-1.674c-.988-.7.141-.7.141-.7a2.456,2.456,0,0,1,1.694,1.116,2.319,2.319,0,0,0,3.247.977,3.133,3.133,0,0,1,.706-1.535c-2.541-.279-5.082-1.256-5.082-5.581a3.971,3.971,0,0,1,1.129-2.93,3.432,3.432,0,0,1,.141-2.93S6.353,4.6,8.471,6a9.2,9.2,0,0,1,2.824-.419A9.2,9.2,0,0,1,14.118,6c2.118-1.4,3.106-1.116,3.106-1.116a4.116,4.116,0,0,1,.141,2.93,4.472,4.472,0,0,1,1.129,2.93c0,4.325-2.682,5.162-5.224,5.441a3.573,3.573,0,0,1,.847,2.232v3.069c0,.279.141.7.847.558a11.293,11.293,0,0,0,7.765-10.6A11.477,11.477,0,0,0,11.294.279Z" transform="translate(0 -0.279)" fill-rule="evenodd"/>
</svg>
