<svg xmlns="http://www.w3.org/2000/svg" width="24" height="24" viewBox="0 0 24 24">
  <path id="instagram" d="M12,18.157A6.157,6.157,0,1,0,5.846,12,6.148,6.148,0,0,0,12,18.157ZM12,8a4,4,0,1,1-4,4A4.01,4.01,0,0,1,12,8ZM5.594,19.844a1.437,1.437,0,1,0-.551-.109,1.436,1.436,0,0,0,.551.109ZM0,12c0,1.657-.015,3.3.078,4.953a7.136,7.136,0,0,0,1.936,5.031,7.128,7.128,0,0,0,5.031,1.936C8.7,24.014,10.346,24,12,24s3.3.015,4.953-.078a7.136,7.136,0,0,0,5.031-1.936,7.129,7.129,0,0,0,1.936-5.031C24.014,15.3,24,13.654,24,12s.015-3.3-.078-4.953a7.137,7.137,0,0,0-1.936-5.031A7.128,7.128,0,0,0,16.954.079C15.3-.014,13.654,0,12,0S8.7-.014,7.047.079A7.136,7.136,0,0,0,2.016,2.015,7.128,7.128,0,0,0,.079,7.047C-.017,8.7,0,10.343,0,12ZM2.643,4.921A3.815,3.815,0,0,1,3.55,3.546,3.84,3.84,0,0,1,4.925,2.64C6.5,2.012,10.253,2.153,12,2.153s5.5-.141,7.082.483a3.815,3.815,0,0,1,1.375.907,3.841,3.841,0,0,1,.907,1.375c.624,1.582.483,5.332.483,7.082s.141,5.5-.483,7.082a3.815,3.815,0,0,1-.907,1.375,3.88,3.88,0,0,1-1.375.907c-1.579.624-5.332.483-7.082.483s-5.5.141-7.082-.483A4.1,4.1,0,0,1,2.64,19.082C2.016,17.5,2.157,13.75,2.157,12S2.016,6.5,2.643,4.921Z" fill-rule="evenodd"/>
</svg>
