<svg xmlns="http://www.w3.org/2000/svg" width="22.461" height="22.462" viewBox="0 0 22.461 22.462">
  <g id="pinterest-logo" transform="translate(-0.008 0)">
    <path id="Path_5" data-name="Path 5" d="M20.965,5.594a11.184,11.184,0,0,0-4.087-4.087A10.985,10.985,0,0,0,11.24,0,10.986,10.986,0,0,0,5.6,1.506,11.18,11.18,0,0,0,1.515,5.594,10.984,10.984,0,0,0,.008,11.231a10.887,10.887,0,0,0,1.857,6.186,11.193,11.193,0,0,0,4.87,4.11,9.689,9.689,0,0,1,.19-2.588l1.448-6.113a3.9,3.9,0,0,1-.366-1.784,3.35,3.35,0,0,1,.629-2.077,1.869,1.869,0,0,1,1.536-.834,1.372,1.372,0,0,1,1.126.483,1.853,1.853,0,0,1,.395,1.214,4.541,4.541,0,0,1-.168,1.1q-.168.651-.439,1.506T10.7,13.805a1.66,1.66,0,0,0,.336,1.528,1.789,1.789,0,0,0,1.433.636,2.942,2.942,0,0,0,2.567-1.74,8.345,8.345,0,0,0,1-4.227A4.146,4.146,0,0,0,14.8,6.888a4.738,4.738,0,0,0-3.444-1.2,5.324,5.324,0,0,0-5.528,5.382,3.326,3.326,0,0,0,.746,2.208.667.667,0,0,1,.161.629q-.029.088-.117.439c-.058.234-.1.385-.117.453q-.117.468-.556.292a3.3,3.3,0,0,1-1.711-1.623,5.848,5.848,0,0,1-.585-2.676,6.38,6.38,0,0,1,.315-1.96,6.684,6.684,0,0,1,.98-1.894A7.7,7.7,0,0,1,6.537,5.323,7.479,7.479,0,0,1,8.8,4.2a9.389,9.389,0,0,1,2.866-.424,7.525,7.525,0,0,1,3.729.921,6.583,6.583,0,0,1,2.523,2.384,6.018,6.018,0,0,1,.87,3.13,9.839,9.839,0,0,1-.76,3.949,6.483,6.483,0,0,1-2.15,2.756,5.265,5.265,0,0,1-3.159,1,3.469,3.469,0,0,1-1.667-.417,2.438,2.438,0,0,1-1.067-.987Q9.323,19.1,9.191,19.6a9,9,0,0,1-1.141,2.4,11.231,11.231,0,0,0,8.826-1.039,11.178,11.178,0,0,0,4.087-4.087,10.988,10.988,0,0,0,1.506-5.638A10.983,10.983,0,0,0,20.965,5.594Z" transform="translate(0 0)"/>
  </g>
</svg>
