<svg xmlns="http://www.w3.org/2000/svg" width="24" height="19.271" viewBox="0 0 24 19.271">
  <path id="twitter" d="M24,2.965a8.961,8.961,0,0,1-2.85.741,4.2,4.2,0,0,0,2.1-2.668A9.913,9.913,0,0,1,20.1,2.224,5.269,5.269,0,0,0,16.5.741a4.935,4.935,0,0,0-4.8,4.892,2.175,2.175,0,0,0,.15,1.038,13.859,13.859,0,0,1-10.2-5.04,4.5,4.5,0,0,0-.6,2.52,4.852,4.852,0,0,0,2.25,4A6.345,6.345,0,0,1,1.05,7.56h0A4.8,4.8,0,0,0,4.95,12.3a4.2,4.2,0,0,1-1.35.148,1.922,1.922,0,0,1-.9-.148,4.853,4.853,0,0,0,4.65,3.409A9.61,9.61,0,0,1,1.2,17.788H0a14.76,14.76,0,0,0,7.5,2.224A13.8,13.8,0,0,0,21.45,6.226V5.633A8.661,8.661,0,0,0,24,2.965Z" transform="translate(0 -0.741)" fill-rule="evenodd"/>
</svg>
