<?xml version="1.0" encoding="utf-8"?>
<!-- Generator: Adobe Illustrator 23.0.5, SVG Export Plug-In . SVG Version: 6.00 Build 0)  -->
<svg version="1.1" id="Capa_1" xmlns="http://www.w3.org/2000/svg" xmlns:xlink="http://www.w3.org/1999/xlink" x="0px" y="0px"
	 viewBox="0 0 459.6 491" style="enable-background:new 0 0 459.6 491;" xml:space="preserve">
<style type="text/css">
	.st0{fill:#231F20;}
	.st1{fill:#FFFFFF;}
</style>
<g>
	<path class="st0" d="M230.4,55.9c13.7-4.4,21.2-19.1,16.8-32.8S228.1,1.9,214.4,6.3c-13.7,4.3-21.3,19-16.8,32.7
		c2.6,8,8.8,14.2,16.8,16.8v25.6h16L230.4,55.9h-16 M212.2,31.9c-0.2-5.6,4.1-10.3,9.7-10.5c5.6-0.2,10.3,4.1,10.5,9.7
		s-4.1,10.3-9.7,10.5c-0.1,0-0.2,0-0.3,0C216.9,41.5,212.5,37.3,212.2,31.9z"/>
	<path class="st0" d="M417.4,289.9C417.5,289.9,417.5,289.9,417.4,289.9c4.9,11,15.8,18.2,27.8,18.2c4.7,0,8.4-4,8-8.8
		c-0.4-4.2-4.1-7.2-8.2-7.3c-7.8-0.1-14.1-6.5-14.1-14.4c0-7.8,6.3-14.2,14.1-14.4c4.2-0.1,7.9-3.1,8.2-7.3c0.4-4.8-3.3-8.8-8-8.8
		c-14.8,0-27.5,10.8-29.8,25.4l-91.6-0.6"/>
	<path class="st0" d="M413.8,287.6c-43.3-28.1-112.4-11.7-116.8-11.7H121c-4.7,0-57-2.9-83.2,43l-6.4,11.6
		c-14.6,2.6-25.2,15.3-25,30.2c0,4.7,4,8.4,8.8,8c4.1-0.4,7.1-4,7.2-8.2c0.1-7.8,6.5-14.1,14.4-14.1s14.2,6.3,14.4,14.1
		c0.1,4.1,3.1,7.8,7.2,8.2c4.8,0.5,8.8-3.3,8.8-8c0-12-7.1-22.9-18.1-27.8l3.2-5.8c11.1-18.8,30.3-31.4,51.9-34v109.1l0,0h-0.4
		c-23.1,1-41.1,20.6-40,43.7c0.9,21.7,18.3,39.1,40,40h210.7c23.1,1,42.7-16.9,43.7-40s-16.9-42.7-40-43.7c-1.2-0.1-2.4-0.1-3.7,0
		h-0.4l0,0v-109L413.8,287.6z"/>
	<polygon class="st0" points="120.4,291.9 298.1,291.9 298.1,402.3 298.1,402.3 120.4,402.3 	"/>
	<g>
		<g>
			<path d="M214.4,77.9c-83.5,0-128,68.1-128,117.3c0,27.9,16.6,74.7,128,74.7s128-46.8,128-74.7C342.4,138.8,293.4,77.9,214.4,77.9
				z M214.4,248.6c-39.8,0-106.7-6.9-106.7-53.3c0-40.3,37.1-96,106.7-96c72.8,0,106.7,57.3,106.7,96
				C321,241.6,254.2,248.6,214.4,248.6z"/>
		</g>
	</g>
	<g>
		<g>
			<path d="M190,187.8c-9.4-9.6-19.6-14.2-30.5-13.8c-16.4,0.7-27,13.1-28.1,14.5c-3.7,4.6-3,11.3,1.6,15c2,1.6,4.4,2.4,6.7,2.4
				c3.1,0,6.2-1.3,8.3-3.9c0-0.1,5.6-6.4,12.5-6.7c4.7-0.1,9.3,2.3,14.3,7.4c4.1,4.2,10.9,4.3,15.1,0.2
				C194,198.8,194.1,192,190,187.8z"/>
		</g>
	</g>
	<g>
		<g>
			<path d="M296.7,187.8c-9.3-9.6-19.5-14.3-30.3-13.8c-16.4,0.7-27.1,13-28.3,14.4c-3.7,4.5-3.1,11.1,1.4,14.9
				c4.5,3.8,11.2,3.2,15-1.3c0.1-0.1,5.7-6.5,12.8-6.8c4.8,0.3,9.2,2.3,14,7.3c2.1,2.2,4.9,3.2,7.7,3.2c2.7,0,5.4-1,7.4-3
				C300.7,198.8,300.8,192,296.7,187.8z"/>
		</g>
	</g>
	<path class="st1" d="M129.4,299.2l0.9,90.1c0,3.6,3,6.5,6.6,6.5l145.5-1.9l0,0c3.6,0,6.5-3,6.5-6.6l-1.2-89.6c0-3.6-3-6.5-6.6-6.5
		l-145.2,1.4C132.3,292.6,129.4,295.6,129.4,299.2z"/>
	<path class="st1" d="M131.4,470.4c-14.3,0.9-26.6-10-27.5-24.3s10-26.6,24.3-27.5c0.8-0.1,1.7-0.1,2.5,0l161.3-2.2
		c14.3-0.9,26.6,10,27.5,24.3s-10,26.6-24.3,27.5c-0.8,0.1-1.7,0.1-2.5,0L131.4,470.4z M278.9,432.3c-5.6,0.1-10.2,4.7-10.1,10.4
		s4.7,10.2,10.4,10.1s10.2-4.7,10.1-10.4l0,0C289.1,436.7,284.5,432.2,278.9,432.3z M211.6,433.2c-5.6,0.1-10.2,4.7-10.1,10.4
		s4.7,10.2,10.4,10.1c5.6-0.1,10.2-4.7,10.1-10.4l0,0C221.8,437.6,217.2,433.1,211.6,433.2L211.6,433.2z M144.2,434.1
		c-5.6,0.1-10.2,4.7-10.1,10.4s4.7,10.2,10.4,10.1s10.2-4.7,10.1-10.4l0,0C154.5,438.5,149.9,434,144.2,434.1z"/>
	<path class="st0" d="M241,341.9v-1.4c0-17.6-14.3-31.9-31.9-31.9s-31.9,14.3-31.9,31.9v1.4c-4.5,1.6-7.8,5.9-7.8,11
		c0,6.4,5.2,11.6,11.6,11.6h5.4v-23.3h-4.7v-0.8c0-15,12.2-27.3,27.3-27.3s27.3,12.2,27.3,27.3v0.8h-4.7v25.4c0,4-3.3,7.3-7.3,7.3
		H209v4.7h15.3c6.6,0,11.9-5.4,11.9-11.9v-2.2h0.8c6.4,0,11.6-5.2,11.6-11.6C248.8,347.8,245.5,343.5,241,341.9z"/>
</g>
</svg>
