<svg id="crest" xmlns="http://www.w3.org/2000/svg" viewBox="0 0 238.95 65.79"><defs><style>.cls-1{font-size:30px;font-family:Anton-Regular, Anton;}</style></defs><title>the-generalist</title><path id="Path_3" data-name="Path 3" d="M80.34,17.41l2.47-6.16L78.63,12.3,76.47,6.91,74.32,12.3l-4.18-1.05,2.46,6.16Zm-5-3.16,1.15-2.89,1.16,2.89,2.44-.61-.85,2.12h-5.5l-.84-2.12Z"/><path id="Path_4" data-name="Path 4" d="M102.22,58.89l-1-10.42-8.5-7.63a2.41,2.41,0,0,0,.08-2,2.47,2.47,0,0,0,1.76-3,1.63,1.63,0,0,0-.11-.31,2.48,2.48,0,0,0-.64-4.87H87.23V28.87l2.52-2.8,2.45,2.45,3.65-3.65-3.31-3.31,5.38-5.38.53-2.12a3.3,3.3,0,1,0-2.92-3.65c0,.13,0,.25,0,.38s0,.25,0,.38l-2.12.53-5.37,5.37-3.31-3.31L81.1,17.41l2.45,2.45L77.8,25l-1.33-1.33L75.14,25,69.4,19.86l2.45-2.45-3.66-3.65-3.31,3.31L59.51,11.7l-2.12-.53c0-.13,0-.25,0-.38a3.32,3.32,0,1,0-3.31,3.31h0a2.45,2.45,0,0,0,.38,0L55,16.18l5.37,5.37-3.31,3.31,3.65,3.66,2.45-2.45,2.52,2.8v1.78H59.09a2.48,2.48,0,0,0-.65,4.87,2.46,2.46,0,0,0,1.35,3.21l.31.11a2.41,2.41,0,0,0,.07,2l-8.5,7.63-.94,10.42,10.42-1L71.48,46.42c.31.2.64.39,1,.56l4,2,4-2c.34-.16.66-.35,1-.54L91.8,57.94Zm-1.94-3.11L86.75,42.25h3.8a2.56,2.56,0,0,0,1-.24l8.09,7.26ZM93.86,32.31a.83.83,0,0,1,0,1.66H90.54v1.65H92.2a.83.83,0,1,1,0,1.66H88.89v1.66h1.66a.83.83,0,0,1,0,1.65h-4.1a11,11,0,0,0,.78-4.14V32.31Zm-6.63-5.92v-.7H85.09l2.14-2.14,1.35,1.34ZM98.83,9.13a1.66,1.66,0,1,1-1.66,1.66h0A1.66,1.66,0,0,1,98.83,9.13Zm-1.94,4.33-.33,1.34-1.74-1.74,1.33-.33a3.41,3.41,0,0,0,.74.73ZM93.45,14l2.14,2.14-4.21,4.21-2.14-2.14Zm-8.7,2.07,8.77,8.76L92.2,26.18l-8.76-8.77Zm1.32,6.28-3.31,3.31H79.53L84.72,21Zm-7.46,5.8-2.14,2.14-2.14-2.14L76.47,26Zm-3,3.65v3.8h-5v-5h3.8Zm0,5.45v6.11l-.93-.47a7.29,7.29,0,0,1-4-5.64Zm1.66,0h4.91a7.27,7.27,0,0,1-4,5.64l-.93.47Zm5-1.66h-5v-3.8l1.17-1.17h3.8Zm-8.86-9.93H70.19l-3.31-3.31L68.23,21ZM52.46,10.79a1.66,1.66,0,1,1,1.66,1.66h0A1.68,1.68,0,0,1,52.46,10.79Zm4.33,1.93,1.34.34L56.39,14.8l-.33-1.34a3.16,3.16,0,0,0,.73-.73Zm.57,3.45L59.5,14l4.21,4.21-2.14,2.14Zm2.07,8.69,8.76-8.76,1.31,1.31-8.76,8.77Zm4.93,0,1.35-1.34,2.14,2.14H65.71v.7ZM60.74,35.62H62.4V34H59.09a.83.83,0,1,1,0-1.66h6.62v4.14a10.85,10.85,0,0,0,.79,4.14H62.4a.83.83,0,1,1,0-1.65h1.65V37.28H60.74a.83.83,0,1,1,0-1.66ZM61.35,42a2.56,2.56,0,0,0,1,.24h3.8L52.67,55.78l.59-6.51Zm-1,14.34-6.5.59,14-14a13.94,13.94,0,0,0,1.45,1.71q.42.41.87.78ZM79.75,45.49l-3.28,1.63-3.28-1.63a10.81,10.81,0,0,1-2.76-2,9.56,9.56,0,0,1-3.07-7.06v-9.1h5.46l-.83.82.83.83H69v7.4a9,9,0,0,0,5,8l2.5,1.25L79,44.41a9,9,0,0,0,5-8V29h-3.8l.82-.83-.82-.83h5.45v9.11a9.48,9.48,0,0,1-3.07,7,10.61,10.61,0,0,1-2.76,2Zm3.93-.81A13.94,13.94,0,0,0,85.13,43l14,14-6.5-.59-9.78-10.9a10.49,10.49,0,0,0,.86-.77Z"/><text class="cls-1" transform="translate(6.72 45.95)">THE</text><text class="cls-1" transform="translate(104.72 45.95)">GENERALIST</text></svg>