<?xml version="1.0" encoding="utf-8"?>
<!-- Generator: Adobe Illustrator 23.0.5, SVG Export Plug-In . SVG Version: 6.00 Build 0)  -->
<svg version="1.1" id="Layer_1" xmlns="http://www.w3.org/2000/svg" xmlns:xlink="http://www.w3.org/1999/xlink" x="0px" y="0px"
	 viewBox="0 0 234.05 52" style="enable-background:new 0 0 234.05 52;" xml:space="preserve">
<style type="text/css">
	.st0{fill:#010101;}
	.st1{font-family:'Anton-Regular';}
	.st2{font-size:30px;}
</style>
<g>
	<path id="Path_3" class="st0" d="M77.89,10.51l2.47-6.16L76.18,5.4l-2.16-5.39L71.87,5.4l-4.18-1.05l2.46,6.16H77.89z M72.89,7.35
		l1.15-2.89l1.16,2.89l2.44-0.61l-0.85,2.12h-5.5l-0.84-2.12L72.89,7.35z"/>
	<path id="Path_4" class="st0" d="M99.77,51.99l-1-10.42l-8.5-7.63c0.32-0.62,0.34-1.35,0.08-2c1.31-0.35,2.1-1.69,1.76-3
		c-0.03-0.11-0.06-0.21-0.11-0.31c1.32-0.37,2.09-1.73,1.73-3.05c-0.3-1.07-1.26-1.81-2.37-1.82h-6.58v-1.79l2.52-2.8l2.45,2.45
		l3.65-3.65l-3.31-3.31l5.38-5.38L96,7.16c1.81,0.2,3.44-1.11,3.64-2.92S98.53,0.8,96.72,0.6c-1.81-0.2-3.43,1.1-3.64,2.91
		c0,0.13,0,0.25,0,0.38s0,0.25,0,0.38L90.96,4.8l-5.37,5.37l-3.31-3.31l-3.63,3.65l2.45,2.45l-5.75,5.14l-1.33-1.33l-1.33,1.33
		l-5.74-5.14l2.45-2.45l-3.66-3.65l-3.31,3.31L57.06,4.8l-2.12-0.53c0-0.13,0-0.25,0-0.38c0.01-1.83-1.48-3.32-3.31-3.33
		c-1.83-0.01-3.32,1.48-3.33,3.31C48.3,5.7,49.78,7.19,51.61,7.2c0.01,0,0.01,0,0.02,0l0,0c0.13,0.01,0.25,0.01,0.38,0l0.54,2.08
		l5.37,5.37l-3.31,3.31l3.65,3.66l2.45-2.45l2.52,2.8v1.78h-6.59c-1.37,0.01-2.47,1.12-2.47,2.49c0.01,1.11,0.75,2.08,1.82,2.38
		c-0.51,1.26,0.09,2.69,1.35,3.21c0,0,0,0,0,0l0.31,0.11c-0.27,0.65-0.24,1.37,0.07,2l-8.5,7.63l-0.94,10.42l10.42-1l10.33-11.47
		c0.31,0.2,0.64,0.39,1,0.56l4,2l4-2c0.34-0.16,0.66-0.35,1-0.54l10.32,11.5L99.77,51.99z M97.83,48.88L84.3,35.35h3.8
		c0.35-0.01,0.69-0.09,1-0.24l8.09,7.26L97.83,48.88z M91.41,25.41c0.46,0,0.83,0.37,0.83,0.83c0,0.46-0.37,0.83-0.83,0.83h-3.32
		v1.65h1.66c0.46,0,0.83,0.37,0.83,0.83c0,0.46-0.37,0.83-0.83,0.83c0,0,0,0,0,0h-3.31v1.66h1.66c0.46,0.05,0.78,0.46,0.73,0.92
		c-0.04,0.39-0.35,0.69-0.73,0.73H84c0.52-1.32,0.79-2.72,0.78-4.14v-4.14H91.41z M84.78,19.49v-0.7h-2.14l2.14-2.14l1.35,1.34
		L84.78,19.49z M96.38,2.23c0.92,0,1.66,0.74,1.66,1.66s-0.74,1.66-1.66,1.66s-1.66-0.74-1.66-1.66l0,0
		C94.72,2.97,95.47,2.23,96.38,2.23L96.38,2.23z M94.44,6.56L94.11,7.9l-1.74-1.74l1.33-0.33C93.91,6.11,94.16,6.36,94.44,6.56z
		 M91,7.1l2.14,2.14l-4.21,4.21l-2.14-2.14L91,7.1z M82.3,9.17l8.77,8.76l-1.32,1.35l-8.76-8.77L82.3,9.17z M83.62,15.45l-3.31,3.31
		h-3.23l5.19-4.66L83.62,15.45z M76.16,21.25l-2.14,2.14l-2.14-2.14l2.14-2.15L76.16,21.25z M73.16,24.9v3.8h-5v-5h3.8L73.16,24.9z
		 M73.16,30.35v6.11l-0.93-0.47c-2.2-1.09-3.7-3.21-4-5.64H73.16z M74.82,30.35h4.91c-0.3,2.43-1.8,4.55-4,5.64l-0.93,0.47
		L74.82,30.35z M79.82,28.69h-5v-3.8l1.17-1.17h3.8L79.82,28.69z M70.96,18.76h-3.22l-3.31-3.31l1.35-1.35L70.96,18.76z M50.01,3.89
		c0-0.92,0.74-1.66,1.66-1.66s1.66,0.74,1.66,1.66s-0.74,1.66-1.66,1.66l0,0l0,0C50.76,5.54,50.03,4.8,50.01,3.89z M54.34,5.82
		l1.34,0.34L53.94,7.9l-0.33-1.34C53.9,6.36,54.14,6.11,54.34,5.82L54.34,5.82z M54.91,9.27l2.14-2.17l4.21,4.21l-2.14,2.14
		L54.91,9.27z M56.98,17.96l8.76-8.76l1.31,1.31l-8.76,8.77L56.98,17.96z M61.91,17.96l1.35-1.34l2.14,2.14h-2.14v0.7L61.91,17.96z
		 M58.29,28.72h1.66V27.1h-3.31c-0.46,0-0.83-0.37-0.83-0.83c0-0.46,0.37-0.83,0.83-0.83c0,0,0,0,0,0h6.62v4.14
		c-0.01,1.42,0.26,2.82,0.79,4.14h-4.1c-0.46,0.05-0.87-0.28-0.92-0.73s0.28-0.87,0.73-0.92c0.06-0.01,0.12-0.01,0.18,0h1.65v-1.69
		h-3.31c-0.46,0-0.83-0.37-0.83-0.83C57.46,29.09,57.84,28.72,58.29,28.72C58.29,28.72,58.29,28.72,58.29,28.72z M58.9,35.1
		c0.31,0.15,0.65,0.23,1,0.24h3.8L50.22,48.88l0.59-6.51L58.9,35.1z M57.9,49.44l-6.5,0.59l14-14c0.44,0.61,0.92,1.18,1.45,1.71
		c0.28,0.27,0.57,0.53,0.87,0.78L57.9,49.44z M77.3,38.59l-3.28,1.63l-3.28-1.63c-1.02-0.52-1.95-1.19-2.76-2
		c-1.97-1.82-3.08-4.38-3.07-7.06v-9.1h5.46l-0.83,0.82l0.83,0.83h-3.82v7.4c0.02,3.4,1.96,6.49,5,8l2.5,1.25l2.5-1.22
		c3.04-1.51,4.98-4.6,5-8V22.1h-3.8l0.82-0.83l-0.82-0.83h5.45v9.11c0,2.66-1.11,5.2-3.07,7c-0.81,0.81-1.74,1.49-2.76,2L77.3,38.59
		z M81.23,37.78c0.53-0.52,1.01-1.08,1.45-1.68l14,14l-6.5-0.59l-9.78-10.9c0.3-0.24,0.59-0.5,0.86-0.77L81.23,37.78z"/>
	<text transform="matrix(1 0 0 1 4.2745 39.05)" class="st0 st1 st2">THE</text>
	<text transform="matrix(1 0 0 1 102.2745 39.05)" class="st0 st1 st2">GENERALIST</text>
</g>
</svg>
