<svg xmlns="http://www.w3.org/2000/svg" width="38.962" height="46.7" viewBox="0 0 38.962 46.7">
  <g id="user" transform="translate(0 0)">
    <path id="Path_1" data-name="Path 1" d="M98.28,22.5a10.883,10.883,0,0,0,7.953-3.3,10.883,10.883,0,0,0,3.295-7.953,10.885,10.885,0,0,0-3.3-7.953,11.245,11.245,0,0,0-15.906,0,10.884,10.884,0,0,0-3.3,7.952,10.883,10.883,0,0,0,3.3,7.953A10.886,10.886,0,0,0,98.28,22.5Zm0,0" transform="translate(-79.094 0)"/>
    <path id="Path_2" data-name="Path 2" d="M38.867,260.668a27.785,27.785,0,0,0-.378-2.951,23.248,23.248,0,0,0-.726-2.967,14.655,14.655,0,0,0-1.22-2.767,10.442,10.442,0,0,0-1.839-2.4,8.11,8.11,0,0,0-2.642-1.66,9.131,9.131,0,0,0-3.373-.61,3.423,3.423,0,0,0-1.828.775c-.548.357-1.189.771-1.9,1.228a10.913,10.913,0,0,1-2.464,1.086,9.568,9.568,0,0,1-6.028,0A10.886,10.886,0,0,1,14,249.32c-.709-.453-1.35-.866-1.906-1.229a3.419,3.419,0,0,0-1.827-.775,9.119,9.119,0,0,0-3.372.611,8.1,8.1,0,0,0-2.642,1.66,10.443,10.443,0,0,0-1.838,2.4,14.684,14.684,0,0,0-1.22,2.767,23.305,23.305,0,0,0-.725,2.966,27.685,27.685,0,0,0-.378,2.952C.031,261.563,0,262.49,0,263.427a7.754,7.754,0,0,0,2.3,5.867,8.291,8.291,0,0,0,5.935,2.165H30.724a8.289,8.289,0,0,0,5.934-2.165,7.751,7.751,0,0,0,2.3-5.867c0-.941-.032-1.869-.094-2.758Zm0,0" transform="translate(0 -224.758)"/>
  </g>
</svg>
